<svg width="56" height="80" viewBox="0 0 56 80" fill="none" xmlns="http://www.w3.org/2000/svg">
<path d="M10.9785 66.2734C8.67383 66.2734 6.70117 65.8145 5.06055 64.8965C3.43945 63.9785 2.18945 62.6797 1.31055 61C0.451172 59.3398 0.0214844 57.377 0.0214844 55.1113V32.5234C0.0214844 29.7695 0.0898438 27.3086 0.226562 25.1406C0.382812 22.9727 0.587891 21.0195 0.841797 19.2812C1.11523 17.5234 1.41797 15.8926 1.75 14.3887C2.27734 11.7129 3.09766 9.44727 4.21094 7.5918C5.34375 5.73633 6.80859 4.26172 8.60547 3.16797C10.4219 2.05469 12.6191 1.32227 15.1973 0.970703C16.5254 0.775391 18.293 0.609375 20.5 0.472656C22.7266 0.335938 25.2266 0.267578 28 0.267578C30.7734 0.267578 33.2734 0.335938 35.5 0.472656C37.7266 0.609375 39.5039 0.775391 40.832 0.970703C43.4102 1.32227 45.5977 2.05469 47.3945 3.16797C49.1914 4.26172 50.6465 5.73633 51.7598 7.5918C52.8926 9.44727 53.7324 11.7129 54.2793 14.3887C54.6113 15.8926 54.9043 17.5234 55.1582 19.2812C55.4121 21.0195 55.6074 22.9727 55.7441 25.1406C55.9004 27.3086 55.9785 29.7695 55.9785 32.5234V55.1113C55.9785 57.377 55.5391 59.3398 54.6602 61C53.8008 62.6797 52.5508 63.9785 50.9102 64.8965C49.2891 65.8145 47.3359 66.2734 45.0508 66.2734H10.9785ZM20.207 12.0156H35.793C36.5156 12.0156 37.1113 11.7812 37.5801 11.3125C38.0488 10.8438 38.2832 10.2578 38.2832 9.55469C38.2832 8.8125 38.0488 8.2168 37.5801 7.76758C37.1113 7.29883 36.5156 7.06445 35.793 7.06445H20.207C19.4844 7.06445 18.8887 7.29883 18.4199 7.76758C17.9707 8.2168 17.7461 8.8125 17.7461 9.55469C17.7461 10.2773 17.9707 10.873 18.4199 11.3418C18.8887 11.791 19.4844 12.0156 20.207 12.0156ZM28 45.3555C31.2227 45.3555 34.2598 45.2969 37.1113 45.1797C39.9629 45.043 42.3945 44.8672 44.4062 44.6523C45.4414 44.5352 46.2129 44.1543 46.7207 43.5098C47.2285 42.8457 47.4824 42.0254 47.4824 41.0488V33.373C47.4824 31.459 47.4238 29.6426 47.3066 27.9238C47.1895 26.2051 47.0527 24.7012 46.8965 23.4121C46.7402 22.123 46.6035 21.1758 46.4863 20.5703C46.3301 19.75 45.9785 19.0762 45.4316 18.5488C44.9043 18.002 44.2402 17.6797 43.4395 17.582C41.8184 17.3867 39.7969 17.2305 37.375 17.1133C34.9531 16.9961 31.8281 16.9375 28 16.9375C24.1719 16.957 21.0371 17.0254 18.5957 17.1426C16.1738 17.2402 14.1523 17.3867 12.5312 17.582C11.7305 17.6797 11.0664 18.002 10.5391 18.5488C10.0117 19.0762 9.66992 19.75 9.51367 20.5703C9.39648 21.1758 9.25977 22.123 9.10352 23.4121C8.94727 24.7012 8.81055 26.2051 8.69336 27.9238C8.57617 29.6426 8.51758 31.459 8.51758 33.373V41.0488C8.51758 42.0254 8.77148 42.8359 9.2793 43.4805C9.78711 44.125 10.5586 44.5156 11.5938 44.6523C13.1562 44.8477 15.3633 45.0137 18.2148 45.1504C21.0664 45.2676 24.3281 45.3359 28 45.3555ZM13.5273 58.9492C14.7383 58.9492 15.7441 58.5488 16.5449 57.748C17.3652 56.9473 17.7754 55.9316 17.7754 54.7012C17.7754 53.4902 17.3652 52.4844 16.5449 51.6836C15.7441 50.8828 14.7383 50.4824 13.5273 50.4824C12.3164 50.4824 11.3105 50.8828 10.5098 51.6836C9.70898 52.4844 9.30859 53.4902 9.30859 54.7012C9.30859 55.9316 9.70898 56.9473 10.5098 57.748C11.3105 58.5488 12.3164 58.9492 13.5273 58.9492ZM42.4727 58.9785C43.6641 58.9785 44.6602 58.5684 45.4609 57.748C46.2812 56.9277 46.6914 55.9121 46.6914 54.7012C46.6914 53.4902 46.291 52.4844 45.4902 51.6836C44.6895 50.8633 43.6836 50.4531 42.4727 50.4531C41.2617 50.4531 40.2461 50.8633 39.4258 51.6836C38.6055 52.4844 38.1953 53.4902 38.1953 54.7012C38.1953 55.9121 38.6055 56.9277 39.4258 57.748C40.2461 58.5684 41.2617 58.9785 42.4727 58.9785ZM5.44141 79.7207C4.77734 79.7207 4.25977 79.5254 3.88867 79.1348C3.51758 78.7637 3.3125 78.3047 3.27344 77.7578C3.23438 77.2305 3.36133 76.7227 3.6543 76.2344L11.916 62.9922H19.5039L9.95312 78.373C9.38672 79.2715 8.5957 79.7207 7.58008 79.7207H5.44141ZM8.75195 75.7949V70.1113H46.7793V75.7949H8.75195ZM47.9805 79.7207C46.9453 79.7207 46.1445 79.2715 45.5781 78.373L36.0273 62.9922H43.6152L51.6719 76C52.043 76.5664 52.1895 77.1328 52.1113 77.6992C52.0332 78.2656 51.7891 78.7441 51.3789 79.1348C50.9688 79.5254 50.4316 79.7207 49.7676 79.7207H47.9805Z" fill="white"/>
</svg>
